<?xml version="1.0" encoding="UTF-8"?>
<svg xmlns="http://www.w3.org/2000/svg" viewBox="0 0 915.13 406.89">
  <defs>
    <style>
      .cls-1 {
        fill: #ff9;
      }

      .cls-2 {
        letter-spacing: .02em;
      }

      .cls-3 {
        fill: #ffc;
      }

      .cls-4 {
        font-family: SegoePrint-Bold, 'Segoe Print';
        font-size: 82.19px;
      }

      .cls-5 {
        fill: #521d2f;
      }
    </style>
  </defs>
  <g id="Capa_4" data-name="Capa 4">
    <path class="cls-1" d="M820.63,233.48s-34.04,7.71-45.38,9.44c-11.35,1.73-45.39,4.4-45.39,4.4,0,0-14.07,4.78-139.42-28.23-127.44-33.57-132.87-46.49-132.87-46.49,0,0-5.43,12.92-132.87,46.49-125.36,33.01-139.43,28.23-139.43,28.23,0,0-34.03-2.67-45.38-4.4-11.34-1.73-45.38-9.44-45.38-9.44l77.66-35.06L457.57,123.7l285.4,74.72,77.66,35.06Z"/>
    <path class="cls-3" d="M77.04,168.28L457.57,68.66l380.53,99.62-17.47,65.2s-18.76,6.38-185.9-37.64c-169.92-44.75-177.16-61.98-177.16-61.98,0,0-7.24,17.23-177.16,61.98-167.14,44.02-185.9,37.64-185.9,37.64l-17.47-65.2Z"/>
    <circle class="cls-5" cx="457.57" cy="33.76" r="33.75"/>
    <path class="cls-5" d="M424.97,25.02c4.82-18,23.33-28.69,41.34-23.86l423.8,113.56c18,4.82,28.69,23.33,23.86,41.34-4.82,18-23.33,28.69-41.34,23.86L448.83,66.36c-18-4.82-28.69-23.33-23.86-41.34Z"/>
    <path class="cls-5" d="M490.16,25.02c-4.82-18-23.33-28.69-41.34-23.86L25.02,114.72C7.02,119.54-3.67,138.05,1.16,156.05c4.82,18,23.33,28.69,41.34,23.86L466.29,66.36c18-4.82,28.69-23.33,23.86-41.34Z"/>
  </g>
  <g id="Capa_5" data-name="Capa 5">
    <text class="cls-4" transform="translate(120.06 366.19)"><tspan class="cls-2" x="0" y="0">L</tspan><tspan x="53.18" y="0">a casa del libro</tspan></text>
  </g>
</svg>